<?xml version="1.0" encoding="UTF-8" standalone="no"?>
<!DOCTYPE svg PUBLIC "-//W3C//DTD SVG 1.1//EN" "http://www.w3.org/Graphics/SVG/1.1/DTD/svg11.dtd">
<!-- 由 Microsoft Visio, SVG Export 生成 Sturcture.svg Page-1 -->
<svg xmlns="http://www.w3.org/2000/svg" xmlns:xlink="http://www.w3.org/1999/xlink" xmlns:ev="http://www.w3.org/2001/xml-events"
		xmlns:v="http://schemas.microsoft.com/visio/2003/SVGExtensions/" width="11.6929in" height="8.26772in"
		viewBox="0 0 841.89 595.276" xml:space="preserve" color-interpolation-filters="sRGB" class="st11">
	<v:documentProperties v:langID="2052" v:metric="true" v:viewMarkup="false">
		<v:userDefs>
			<v:ud v:nameU="msvSubprocessMaster" v:prompt="" v:val="VT4(Rectangle)"/>
			<v:ud v:nameU="msvNoAutoConnect" v:val="VT0(1):26"/>
		</v:userDefs>
	</v:documentProperties>

	<style type="text/css">
	<![CDATA[
		.st1 {fill:#4672c4;stroke:#c7c8c8;stroke-width:0.25}
		.st2 {fill:#feffff;font-family:Calibri;font-size:0.833336em}
		.st3 {font-size:1em}
		.st4 {stroke:#c7c8c8;stroke-width:0.25}
		.st5 {fill:none;stroke:none;stroke-width:0.25}
		.st6 {fill:#4672c4;font-family:Calibri;font-size:1.00001em}
		.st7 {fill:#3c63ac;stroke:#30518f;stroke-width:0.75}
		.st8 {marker-end:url(#mrkr4-74);stroke:#4672c4;stroke-linecap:round;stroke-linejoin:round;stroke-width:1}
		.st9 {fill:#4672c4;fill-opacity:1;stroke:#4672c4;stroke-opacity:1;stroke-width:0.28409090909091}
		.st10 {font-family:宋体;font-size:1em}
		.st11 {fill:none;fill-rule:evenodd;font-size:12px;overflow:visible;stroke-linecap:square;stroke-miterlimit:3}
	]]>
	</style>

	<defs id="Markers">
		<g id="lend4">
			<path d="M 2 1 L 0 0 L 2 -1 L 2 1 " style="stroke:none"/>
		</g>
		<marker id="mrkr4-74" class="st9" v:arrowType="4" v:arrowSize="2" v:setback="7.04" refX="-7.04" orient="auto"
				markerUnits="strokeWidth" overflow="visible">
			<use xlink:href="#lend4" transform="scale(-3.52,-3.52) "/>
		</marker>
	</defs>
	<g v:mID="0" v:index="1" v:groupContext="foregroundPage">
		<v:userDefs>
			<v:ud v:nameU="msvThemeOrder" v:val="VT0(0):26"/>
		</v:userDefs>
		<title>页-1</title>
		<v:pageProperties v:drawingScale="0.0393701" v:pageScale="0.0393701" v:drawingUnits="24" v:shadowOffsetX="8.50394"
				v:shadowOffsetY="-8.50394"/>
		<v:layer v:name="连接线" v:index="0"/>
		<g id="shape2-1" v:mID="2" v:groupContext="shape" transform="translate(236.735,-257.633)">
			<title>矩形</title>
			<desc>DataNode</desc>
			<v:userDefs>
				<v:ud v:nameU="visVersion" v:val="VT0(15):26"/>
			</v:userDefs>
			<v:textBlock v:margins="rect(4,4,4,4)" v:tabSpace="42.5197"/>
			<v:textRect cx="46.6371" cy="577.787" width="93.28" height="34.9778"/>
			<rect x="0" y="560.298" width="93.2742" height="34.9778" class="st1"/>
			<text x="26.12" y="580.79" class="st2" v:langID="2052"><v:paragraph v:horizAlign="1"/><v:tabList/>DataNode</text>		</g>
		<g id="shape3-4" v:mID="3" v:groupContext="shape" transform="translate(190.098,-420.571)">
			<title>矩形.3</title>
			<desc>eventHandler</desc>
			<v:userDefs>
				<v:ud v:nameU="visVersion" v:val="VT0(15):26"/>
			</v:userDefs>
			<v:textBlock v:margins="rect(4,4,4,4)" v:tabSpace="42.5197"/>
			<v:textRect cx="249.509" cy="577.787" width="499.02" height="34.9778"/>
			<rect x="0" y="560.298" width="499.017" height="34.9778" class="st1"/>
			<text x="221.83" y="580.79" class="st2" v:langID="2052"><v:paragraph v:horizAlign="1"/><v:tabList/>eventHandler</text>		</g>
		<g id="shape5-7" v:mID="5" v:groupContext="shape" transform="translate(381.31,-257.633)">
			<title>矩形.5</title>
			<desc>WifiNode</desc>
			<v:userDefs>
				<v:ud v:nameU="visVersion" v:val="VT0(15):26"/>
			</v:userDefs>
			<v:textBlock v:margins="rect(4,4,4,4)" v:tabSpace="42.5197"/>
			<v:textRect cx="46.6371" cy="577.787" width="93.28" height="34.9778"/>
			<rect x="0" y="560.298" width="93.2742" height="34.9778" class="st1"/>
			<text x="27.39" y="580.79" class="st2" v:langID="2052"><v:paragraph v:horizAlign="1"/><v:tabList/>WifiNode</text>		</g>
		<g id="shape6-10" v:mID="6" v:groupContext="shape" transform="translate(525.885,-257.633)">
			<title>矩形.6</title>
			<desc>TaskNode</desc>
			<v:userDefs>
				<v:ud v:nameU="visVersion" v:val="VT0(15):26"/>
			</v:userDefs>
			<v:textBlock v:margins="rect(4,4,4,4)" v:tabSpace="42.5197"/>
			<v:textRect cx="46.6371" cy="577.787" width="93.28" height="34.9778"/>
			<rect x="0" y="560.298" width="93.2742" height="34.9778" class="st1"/>
			<text x="26.6" y="580.79" class="st2" v:langID="2052"><v:paragraph v:horizAlign="1"/><v:tabList/>TaskNode</text>		</g>
		<g id="shape13-13" v:mID="13" v:groupContext="shape" transform="translate(40.8591,-340.414)">
			<title>矩形.13</title>
			<desc>Fingerprint recognition Module with UART</desc>
			<v:userDefs>
				<v:ud v:nameU="visVersion" v:val="VT0(15):26"/>
			</v:userDefs>
			<v:textBlock v:margins="rect(4,4,4,4)" v:tabSpace="42.5197"/>
			<v:textRect cx="46.6371" cy="577.787" width="93.28" height="34.9778"/>
			<rect x="0" y="560.298" width="93.2742" height="34.9778" class="st1"/>
			<text x="24.16" y="568.79" class="st2" v:langID="2052"><v:paragraph v:horizAlign="1"/><v:tabList/>Fingerprint <tspan
						x="23.44" dy="1.2em" class="st3">recognition<v:newlineChar/></tspan><tspan x="8.3" dy="1.2em" class="st3">Module with UART</tspan></text>		</g>
		<g id="shape16-18" v:mID="16" v:groupContext="shape" transform="translate(40.8591,-285.032)">
			<title>矩形.16</title>
			<desc>4x4 KeyBoard GPIO Input</desc>
			<v:userDefs>
				<v:ud v:nameU="visVersion" v:val="VT0(15):26"/>
			</v:userDefs>
			<v:textBlock v:margins="rect(4,4,4,4)" v:tabSpace="42.5197"/>
			<v:textRect cx="46.6371" cy="577.787" width="93.28" height="34.9778"/>
			<rect x="0" y="560.298" width="93.2742" height="34.9778" class="st1"/>
			<text x="18.8" y="574.79" class="st2" v:langID="2052"><v:paragraph v:horizAlign="1"/><v:tabList/>4x4 KeyBoard<v:newlineChar/><tspan
						x="24.38" dy="1.2em" class="st3">GPIO Input</tspan></text>		</g>
		<g id="shape17-22" v:mID="17" v:groupContext="shape" transform="translate(40.8591,-174.269)">
			<title>矩形.17</title>
			<desc>Ble with UART</desc>
			<v:userDefs>
				<v:ud v:nameU="visVersion" v:val="VT0(15):26"/>
			</v:userDefs>
			<v:textBlock v:margins="rect(4,4,4,4)" v:tabSpace="42.5197"/>
			<v:textRect cx="46.6371" cy="577.787" width="93.28" height="34.9778"/>
			<rect x="0" y="560.298" width="93.2742" height="34.9778" class="st1"/>
			<text x="17.75" y="580.79" class="st2" v:langID="2052"><v:paragraph v:horizAlign="1"/><v:tabList/>Ble with UART</text>		</g>
		<g id="shape18-25" v:mID="18" v:groupContext="shape" transform="translate(40.8591,-229.65)">
			<title>矩形.18</title>
			<desc>Ultrasonic Distance Measurement Module</desc>
			<v:userDefs>
				<v:ud v:nameU="visVersion" v:val="VT0(15):26"/>
			</v:userDefs>
			<v:textBlock v:margins="rect(4,4,4,4)" v:tabSpace="42.5197"/>
			<v:textRect cx="46.6371" cy="577.787" width="93.28" height="34.9778"/>
			<rect x="0" y="560.298" width="93.2742" height="34.9778" class="st1"/>
			<text x="7.38" y="568.79" class="st2" v:langID="2052"><v:paragraph v:horizAlign="1"/><v:tabList/>Ultrasonic Distance <v:newlineChar/><tspan
						x="17.88" dy="1.2em" class="st3">Measurement </tspan><tspan x="30.84" dy="1.2em" class="st3">Module</tspan></text>		</g>
		<g id="shape19-30" v:mID="19" v:groupContext="shape" transform="translate(836.674,192.193) rotate(90)">
			<title>左括号</title>
			<v:userDefs>
				<v:ud v:nameU="visVersion" v:prompt="" v:val="VT0(15):26"/>
			</v:userDefs>
			<path d="M23.32 595.28 A31.2189 66.3401 0 0 1 11.66 555.63 L11.66 397.07 L0 397.07 L11.66 397.07 L11.66 238.5 A31.2189
						 66.3401 0 0 1 23.32 198.86" class="st4"/>
		</g>
		<g id="shape21-33" v:mID="21" v:groupContext="shape" transform="translate(236.009,-353.951)">
			<title>工作表.21</title>
			<desc>topic1</desc>
			<v:textBlock v:margins="rect(4,4,4,4)" v:tabSpace="42.5197"/>
			<v:textRect cx="62.5196" cy="587.049" width="125.04" height="16.4525"/>
			<rect x="0" y="578.823" width="125.039" height="16.4525" class="st5"/>
			<text x="47.24" y="590.65" class="st6" v:langID="2052"><v:paragraph v:horizAlign="1"/><v:tabList/>topic1</text>		</g>
		<g id="shape22-36" v:mID="22" v:groupContext="shape" transform="translate(330.013,-353.949)">
			<title>工作表.22</title>
			<desc>topic2</desc>
			<v:textBlock v:margins="rect(4,4,4,4)" v:tabSpace="42.5197"/>
			<v:textRect cx="62.5196" cy="587.049" width="125.04" height="16.4525"/>
			<rect x="0" y="578.823" width="125.039" height="16.4525" class="st5"/>
			<text x="47.24" y="590.65" class="st6" v:langID="2052"><v:paragraph v:horizAlign="1"/><v:tabList/>topic2</text>		</g>
		<g id="shape23-39" v:mID="23" v:groupContext="shape" transform="translate(430.205,-353.955)">
			<title>工作表.23</title>
			<desc>topic3</desc>
			<v:textBlock v:margins="rect(4,4,4,4)" v:tabSpace="42.5197"/>
			<v:textRect cx="62.5196" cy="587.049" width="125.04" height="16.4525"/>
			<rect x="0" y="578.823" width="125.039" height="16.4525" class="st5"/>
			<text x="47.24" y="590.65" class="st6" v:langID="2052"><v:paragraph v:horizAlign="1"/><v:tabList/>topic3</text>		</g>
		<g id="shape24-42" v:mID="24" v:groupContext="shape" transform="translate(520.34,-356.442)">
			<title>工作表.24</title>
			<desc>topic4</desc>
			<v:textBlock v:margins="rect(4,4,4,4)" v:tabSpace="42.5197"/>
			<v:textRect cx="62.5196" cy="587.049" width="125.04" height="16.4525"/>
			<rect x="0" y="578.823" width="125.039" height="16.4525" class="st5"/>
			<text x="47.24" y="590.65" class="st6" v:langID="2052"><v:paragraph v:horizAlign="1"/><v:tabList/>topic4</text>		</g>
		<g id="shape25-45" v:mID="25" v:groupContext="shape" transform="translate(878.648,256.319) rotate(90)">
			<title>普通双箭头</title>
			<v:userDefs>
				<v:ud v:nameU="visVersion" v:val="VT0(15):26"/>
				<v:ud v:nameU="ArrowType" v:prompt="" v:val="VT0(3):26"/>
			</v:userDefs>
			<path d="M0 595.28 L11.34 592.44 L11.34 593.86 L29.47 593.86 L29.47 592.44 L40.81 595.28 L29.47 598.11 L29.47 596.69
						 L11.34 596.69 L11.34 598.11 L0 595.28 Z" class="st7"/>
		</g>
		<g id="shape26-47" v:mID="26" v:groupContext="shape" transform="translate(190.538,-310.099)">
			<title>工作表.26</title>
			<desc>subscribe</desc>
			<v:textBlock v:margins="rect(4,4,4,4)" v:tabSpace="42.5197"/>
			<v:textRect cx="62.5196" cy="587.049" width="125.04" height="16.4525"/>
			<rect x="0" y="578.823" width="125.039" height="16.4525" class="st5"/>
			<text x="39.38" y="590.65" class="st6" v:langID="2052"><v:paragraph v:horizAlign="1"/><v:tabList/>subscribe</text>		</g>
		<g id="shape27-50" v:mID="27" v:groupContext="shape" transform="translate(253.058,-310.099)">
			<title>工作表.27</title>
			<desc>publish</desc>
			<v:textBlock v:margins="rect(4,4,4,4)" v:tabSpace="42.5197"/>
			<v:textRect cx="62.5196" cy="587.049" width="125.04" height="16.4525"/>
			<rect x="0" y="578.823" width="125.039" height="16.4525" class="st5"/>
			<text x="44.81" y="590.65" class="st6" v:langID="2052"><v:paragraph v:horizAlign="1"/><v:tabList/>publish</text>		</g>
		<g id="shape28-53" v:mID="28" v:groupContext="shape" transform="translate(1025.17,257.693) rotate(90)">
			<title>普通双箭头.28</title>
			<v:userDefs>
				<v:ud v:nameU="visVersion" v:val="VT0(15):26"/>
				<v:ud v:nameU="ArrowType" v:prompt="" v:val="VT0(3):26"/>
			</v:userDefs>
			<path d="M0 595.28 L11.34 592.44 L11.34 593.86 L31.01 593.86 L31.01 592.44 L42.35 595.28 L31.01 598.11 L31.01 596.69
						 L11.34 596.69 L11.34 598.11 L0 595.28 Z" class="st7"/>
		</g>
		<g id="shape29-55" v:mID="29" v:groupContext="shape" transform="translate(337.057,-307.185)">
			<title>工作表.29</title>
			<desc>subscribe</desc>
			<v:textBlock v:margins="rect(4,4,4,4)" v:tabSpace="42.5197"/>
			<v:textRect cx="62.5196" cy="587.049" width="125.04" height="16.4525"/>
			<rect x="0" y="578.823" width="125.039" height="16.4525" class="st5"/>
			<text x="39.38" y="590.65" class="st6" v:langID="2052"><v:paragraph v:horizAlign="1"/><v:tabList/>subscribe</text>		</g>
		<g id="shape30-58" v:mID="30" v:groupContext="shape" transform="translate(399.577,-307.185)">
			<title>工作表.30</title>
			<desc>publish</desc>
			<v:textBlock v:margins="rect(4,4,4,4)" v:tabSpace="42.5197"/>
			<v:textRect cx="62.5196" cy="587.049" width="125.04" height="16.4525"/>
			<rect x="0" y="578.823" width="125.039" height="16.4525" class="st5"/>
			<text x="44.81" y="590.65" class="st6" v:langID="2052"><v:paragraph v:horizAlign="1"/><v:tabList/>publish</text>		</g>
		<g id="shape31-61" v:mID="31" v:groupContext="shape" transform="translate(1161.68,259.234) rotate(90)">
			<title>普通双箭头.31</title>
			<v:userDefs>
				<v:ud v:nameU="visVersion" v:val="VT0(15):26"/>
				<v:ud v:nameU="ArrowType" v:prompt="" v:val="VT0(3):26"/>
			</v:userDefs>
			<path d="M0 595.28 L11.34 592.44 L11.34 593.86 L29.47 593.86 L29.47 592.44 L40.81 595.28 L29.47 598.11 L29.47 596.69
						 L11.34 596.69 L11.34 598.11 L0 595.28 Z" class="st7"/>
		</g>
		<g id="shape32-63" v:mID="32" v:groupContext="shape" transform="translate(473.574,-307.185)">
			<title>工作表.32</title>
			<desc>subscribe</desc>
			<v:textBlock v:margins="rect(4,4,4,4)" v:tabSpace="42.5197"/>
			<v:textRect cx="62.5196" cy="587.049" width="125.04" height="16.4525"/>
			<rect x="0" y="578.823" width="125.039" height="16.4525" class="st5"/>
			<text x="39.38" y="590.65" class="st6" v:langID="2052"><v:paragraph v:horizAlign="1"/><v:tabList/>subscribe</text>		</g>
		<g id="shape33-66" v:mID="33" v:groupContext="shape" transform="translate(536.093,-307.185)">
			<title>工作表.33</title>
			<desc>publish</desc>
			<v:textBlock v:margins="rect(4,4,4,4)" v:tabSpace="42.5197"/>
			<v:textRect cx="62.5196" cy="587.049" width="125.04" height="16.4525"/>
			<rect x="0" y="578.823" width="125.039" height="16.4525" class="st5"/>
			<text x="44.81" y="590.65" class="st6" v:langID="2052"><v:paragraph v:horizAlign="1"/><v:tabList/>publish</text>		</g>
		<g id="shape34-69" v:mID="34" v:groupContext="shape" v:layerMember="0" transform="translate(134.133,-357.902)">
			<title>动态连接线</title>
			<path d="M0 595.28 L12.67 595.28 L12.67 678.06 L95.56 678.06" class="st8"/>
		</g>
		<g id="shape35-75" v:mID="35" v:groupContext="shape" v:layerMember="0" transform="translate(134.133,-302.521)">
			<title>动态连接线.35</title>
			<path d="M0 595.28 L12.67 595.28 L12.67 622.67 L95.56 622.67" class="st8"/>
		</g>
		<g id="shape36-80" v:mID="36" v:groupContext="shape" v:layerMember="0" transform="translate(134.133,-247.139)">
			<title>动态连接线.36</title>
			<path d="M0 595.28 L12.67 595.28 L12.67 567.29 L95.56 567.29" class="st8"/>
		</g>
		<g id="shape37-85" v:mID="37" v:groupContext="shape" v:layerMember="0" transform="translate(134.133,-191.758)">
			<title>动态连接线.37</title>
			<path d="M0 595.28 L12.67 595.28 L12.67 511.91 L95.56 511.91" class="st8"/>
		</g>
		<g id="shape38-90" v:mID="38" v:groupContext="shape" transform="translate(381.31,-155.906)">
			<title>矩形.38</title>
			<desc>APP</desc>
			<v:userDefs>
				<v:ud v:nameU="visVersion" v:val="VT0(15):26"/>
			</v:userDefs>
			<v:textBlock v:margins="rect(4,4,4,4)" v:tabSpace="42.5197"/>
			<v:textRect cx="46.6371" cy="577.787" width="93.28" height="34.9778"/>
			<rect x="0" y="560.298" width="93.2742" height="34.9778" class="st1"/>
			<text x="38.58" y="580.79" class="st2" v:langID="2052"><v:paragraph v:horizAlign="1"/><v:tabList/>APP</text>		</g>
		<g id="shape39-93" v:mID="39" v:groupContext="shape" transform="translate(1023.22,342.598) rotate(90)">
			<title>普通双箭头.39</title>
			<v:userDefs>
				<v:ud v:nameU="visVersion" v:val="VT0(15):26"/>
				<v:ud v:nameU="ArrowType" v:prompt="" v:val="VT0(3):26"/>
			</v:userDefs>
			<path d="M0 595.28 L11.34 592.44 L11.34 593.86 L48.12 593.86 L48.12 592.44 L59.46 595.28 L48.12 598.11 L48.12 596.69
						 L11.34 596.69 L11.34 598.11 L0 595.28 Z" class="st7"/>
		</g>
		<g id="shape40-95" v:mID="40" v:groupContext="shape" transform="translate(395.301,-214.202)">
			<title>工作表.40</title>
			<desc>MQTT</desc>
			<v:textBlock v:margins="rect(4,4,4,4)" v:tabSpace="42.5197"/>
			<v:textRect cx="62.5196" cy="587.049" width="125.04" height="16.4525"/>
			<rect x="0" y="578.823" width="125.039" height="16.4525" class="st5"/>
			<text x="47.5" y="590.65" class="st6" v:langID="2052"><v:paragraph v:horizAlign="1"/><v:tabList/>MQTT</text>		</g>
		<g id="shape41-98" v:mID="41" v:groupContext="shape" transform="translate(698.442,-321.467)">
			<title>矩形.41</title>
			<desc>Fingerprint Comparison</desc>
			<v:userDefs>
				<v:ud v:nameU="visVersion" v:val="VT0(15):26"/>
			</v:userDefs>
			<v:textBlock v:margins="rect(4,4,4,4)" v:tabSpace="42.5197"/>
			<v:textRect cx="46.6371" cy="577.787" width="93.28" height="34.9778"/>
			<rect x="0" y="560.298" width="93.2742" height="34.9778" class="st1"/>
			<text x="24.16" y="574.79" class="st2" v:langID="2052"><v:paragraph v:horizAlign="1"/><v:tabList/>F<tspan class="st3"
						v:langID="1033">ingerprint </tspan><tspan x="22.21" dy="1.2em" class="st3">C</tspan><tspan class="st3"
						v:langID="1033">omparison</tspan></text>		</g>
		<g id="shape42-104" v:mID="42" v:groupContext="shape" transform="translate(698.442,-269.292)">
			<title>矩形.42</title>
			<desc>Password Comparison</desc>
			<v:userDefs>
				<v:ud v:nameU="visVersion" v:val="VT0(15):26"/>
			</v:userDefs>
			<v:textBlock v:margins="rect(4,4,4,4)" v:tabSpace="42.5197"/>
			<v:textRect cx="46.6371" cy="577.787" width="93.28" height="34.9778"/>
			<rect x="0" y="560.298" width="93.2742" height="34.9778" class="st1"/>
			<text x="27.17" y="574.46" class="st2" v:langID="2052"><v:paragraph v:horizAlign="1"/><v:tabList/>Password<tspan
						class="st10"> </tspan><tspan x="22.21" dy="1.331em" class="st3">C</tspan><tspan class="st3" v:langID="1033">omparison</tspan></text>		</g>
		<g id="shape43-110" v:mID="43" v:groupContext="shape" transform="translate(698.442,-217.117)">
			<title>矩形.43</title>
			<desc>OpenCV</desc>
			<v:userDefs>
				<v:ud v:nameU="visVersion" v:val="VT0(15):26"/>
			</v:userDefs>
			<v:textBlock v:margins="rect(4,4,4,4)" v:tabSpace="42.5197"/>
			<v:textRect cx="46.6371" cy="577.787" width="93.28" height="34.9778"/>
			<rect x="0" y="560.298" width="93.2742" height="34.9778" class="st1"/>
			<text x="30.08" y="580.79" class="st2" v:langID="2052"><v:paragraph v:horizAlign="1"/><v:tabList/>OpenCV</text>		</g>
		<g id="shape44-113" v:mID="44" v:groupContext="shape" transform="translate(698.442,-167.565)">
			<title>矩形.44</title>
			<desc>Camera Display</desc>
			<v:userDefs>
				<v:ud v:nameU="visVersion" v:val="VT0(15):26"/>
			</v:userDefs>
			<v:textBlock v:margins="rect(4,4,4,4)" v:tabSpace="42.5197"/>
			<v:textRect cx="46.6371" cy="577.787" width="93.28" height="34.9778"/>
			<rect x="0" y="560.298" width="93.2742" height="34.9778" class="st1"/>
			<text x="15.21" y="580.79" class="st2" v:langID="2052"><v:paragraph v:horizAlign="1"/><v:tabList/>Camera Display</text>		</g>
		<g id="shape45-116" v:mID="45" v:groupContext="shape" v:layerMember="0" transform="translate(647.141,-270.458)">
			<title>动态连接线.45</title>
			<path d="M0 595.28 L0 526.78 L44.26 526.78" class="st8"/>
		</g>
		<g id="shape46-121" v:mID="46" v:groupContext="shape" v:layerMember="0" transform="translate(647.141,-270.458)">
			<title>动态连接线.46</title>
			<path d="M0 595.28 L0 578.95 L44.26 578.95" class="st8"/>
		</g>
		<g id="shape47-126" v:mID="47" v:groupContext="shape" v:layerMember="0" transform="translate(647.141,-270.458)">
			<title>动态连接线.47</title>
			<path d="M0 595.28 L0 631.13 L44.26 631.13" class="st8"/>
		</g>
		<g id="shape48-131" v:mID="48" v:groupContext="shape" v:layerMember="0" transform="translate(647.141,-270.458)">
			<title>动态连接线.48</title>
			<path d="M0 595.28 L0 680.68 L44.26 680.68" class="st8"/>
		</g>
		<g id="shape51-136" v:mID="51" v:groupContext="shape" v:layerMember="0" transform="translate(619.159,-268.035)">
			<title>动态连接线.51</title>
			<path d="M0 588.19 L20.94 588.19" class="st8"/>
		</g>
	</g>
</svg>
